<svg width="15" height="15" viewBox="0 0 15 15" fill="none" xmlns="http://www.w3.org/2000/svg">
<path fill-rule="evenodd" clip-rule="evenodd" d="M7.38443 1.69249C4.24166 1.69249 1.69212 4.24695 1.69212 7.40079C1.69212 10.3313 3.89458 12.7454 6.72781 13.0716C7.01212 13.1042 7.31674 12.9854 7.56043 12.7411C7.66753 12.6338 7.72768 12.4884 7.72768 12.3368C7.72768 12.1852 7.66753 12.0398 7.56043 11.9325C7.36843 11.7405 7.17581 11.4833 7.07058 11.1922C6.96289 10.8937 6.93581 10.5189 7.15489 10.1706C7.35366 9.85495 7.6515 9.68572 7.96412 9.60326C8.26566 9.52449 8.59858 9.51956 8.9192 9.53926C9.2564 9.56392 9.59262 9.60066 9.9272 9.64941C10.27 9.69372 10.6041 9.73495 10.9278 9.75033C11.5887 9.78172 12.0983 9.69864 12.446 9.41433C12.7795 9.14172 13.0767 8.5891 13.0767 7.40079C13.0767 4.24695 10.5272 1.69249 7.38443 1.69249ZM0.769043 7.40079C0.769043 3.73926 3.72966 0.769409 7.38443 0.769409C11.0392 0.769409 13.9998 3.73926 13.9998 7.40079C13.9998 8.72079 13.6694 9.60633 13.0306 10.1288C12.4066 10.6389 11.5992 10.7066 10.8835 10.6722C10.5001 10.6495 10.1178 10.6105 9.73766 10.5553C9.41766 10.514 9.12843 10.4765 8.86381 10.4605C8.57643 10.4433 8.35858 10.4543 8.1992 10.4962C8.05151 10.5349 7.98012 10.5928 7.93643 10.6623C7.91243 10.7005 7.89581 10.7596 7.93889 10.8783C7.98443 11.0051 8.08412 11.1503 8.21397 11.2808C8.49355 11.5611 8.65056 11.9409 8.65056 12.3368C8.65056 12.7327 8.49355 13.1125 8.21397 13.3928C7.81397 13.794 7.24166 14.0599 6.62197 13.9885C3.32658 13.6094 0.769043 10.8039 0.769043 7.40079ZM5.89827 3.84633C5.77587 3.84633 5.65847 3.89496 5.57192 3.98151C5.48536 4.06807 5.43674 4.18546 5.43674 4.30787C5.43674 4.43028 5.48536 4.54767 5.57192 4.63423C5.65847 4.72078 5.77587 4.76941 5.89827 4.76941C6.02068 4.76941 6.13808 4.72078 6.22463 4.63423C6.31119 4.54767 6.35981 4.43028 6.35981 4.30787C6.35981 4.18546 6.31119 4.06807 6.22463 3.98151C6.13808 3.89496 6.02068 3.84633 5.89827 3.84633ZM4.51366 4.30787C4.51366 3.94065 4.65954 3.58847 4.9192 3.3288C5.17887 3.06913 5.53105 2.92326 5.89827 2.92326C6.2655 2.92326 6.61768 3.06913 6.87734 3.3288C7.13701 3.58847 7.28289 3.94065 7.28289 4.30787C7.28289 4.67509 7.13701 5.02728 6.87734 5.28694C6.61768 5.54661 6.2655 5.69249 5.89827 5.69249C5.53105 5.69249 5.17887 5.54661 4.9192 5.28694C4.65954 5.02728 4.51366 4.67509 4.51366 4.30787ZM8.92289 3.84633C8.80048 3.84633 8.68309 3.89496 8.59653 3.98151C8.50998 4.06807 8.46135 4.18546 8.46135 4.30787C8.46135 4.43028 8.50998 4.54767 8.59653 4.63423C8.68309 4.72078 8.80048 4.76941 8.92289 4.76941C9.0453 4.76941 9.16269 4.72078 9.24925 4.63423C9.3358 4.54767 9.38443 4.43028 9.38443 4.30787C9.38443 4.18546 9.3358 4.06807 9.24925 3.98151C9.16269 3.89496 9.0453 3.84633 8.92289 3.84633ZM7.53827 4.30787C7.53827 3.94065 7.68415 3.58847 7.94382 3.3288C8.20348 3.06913 8.55567 2.92326 8.92289 2.92326C9.29011 2.92326 9.64229 3.06913 9.90196 3.3288C10.1616 3.58847 10.3075 3.94065 10.3075 4.30787C10.3075 4.67509 10.1616 5.02728 9.90196 5.28694C9.64229 5.54661 9.29011 5.69249 8.92289 5.69249C8.55567 5.69249 8.20348 5.54661 7.94382 5.28694C7.68415 5.02728 7.53827 4.67509 7.53827 4.30787ZM3.99981 6.61556C3.8774 6.61556 3.76001 6.66419 3.67346 6.75074C3.5869 6.8373 3.53827 6.95469 3.53827 7.0771C3.53827 7.19951 3.5869 7.3169 3.67346 7.40346C3.76001 7.49001 3.8774 7.53864 3.99981 7.53864C4.12222 7.53864 4.23961 7.49001 4.32617 7.40346C4.41272 7.3169 4.46135 7.19951 4.46135 7.0771C4.46135 6.95469 4.41272 6.8373 4.32617 6.75074C4.23961 6.66419 4.12222 6.61556 3.99981 6.61556ZM2.6152 7.0771C2.6152 6.70988 2.76108 6.3577 3.02074 6.09803C3.28041 5.83837 3.63259 5.69249 3.99981 5.69249C4.36704 5.69249 4.71922 5.83837 4.97888 6.09803C5.23855 6.3577 5.38443 6.70988 5.38443 7.0771C5.38443 7.44432 5.23855 7.79651 4.97888 8.05617C4.71922 8.31584 4.36704 8.46172 3.99981 8.46172C3.63259 8.46172 3.28041 8.31584 3.02074 8.05617C2.76108 7.79651 2.6152 7.44432 2.6152 7.0771ZM10.769 6.61556C10.6466 6.61556 10.5292 6.66419 10.4427 6.75074C10.3561 6.8373 10.3075 6.95469 10.3075 7.0771C10.3075 7.19951 10.3561 7.3169 10.4427 7.40346C10.5292 7.49001 10.6466 7.53864 10.769 7.53864C10.8915 7.53864 11.0088 7.49001 11.0954 7.40346C11.182 7.3169 11.2306 7.19951 11.2306 7.0771C11.2306 6.95469 11.182 6.8373 11.0954 6.75074C11.0088 6.66419 10.8915 6.61556 10.769 6.61556ZM9.38443 7.0771C9.38443 6.89527 9.42024 6.71522 9.48983 6.54723C9.55941 6.37924 9.6614 6.2266 9.78997 6.09803C9.91855 5.96946 10.0712 5.86747 10.2392 5.79788C10.4072 5.7283 10.5872 5.69249 10.769 5.69249C10.9509 5.69249 11.1309 5.7283 11.2989 5.79788C11.4669 5.86747 11.6195 5.96946 11.7481 6.09803C11.8767 6.2266 11.9787 6.37924 12.0483 6.54723C12.1178 6.71522 12.1537 6.89527 12.1537 7.0771C12.1537 7.44432 12.0078 7.79651 11.7481 8.05617C11.4884 8.31584 11.1363 8.46172 10.769 8.46172C10.4018 8.46172 10.0496 8.31584 9.78997 8.05617C9.53031 7.79651 9.38443 7.44432 9.38443 7.0771Z" fill="#8D8D8D"/>
</svg>
