<svg width="12" height="12" viewBox="0 0 12 12" fill="none" xmlns="http://www.w3.org/2000/svg">
    <g clip-path="url(#clip0_7_529)">
        <path fill-rule="evenodd" clip-rule="evenodd"
            d="M2.32494 8.4C2.35987 8.35343 2.40516 8.31563 2.45723 8.28959C2.5093 8.26355 2.56672 8.25 2.62494 8.25H4.49994C4.5994 8.25 4.69478 8.28951 4.7651 8.35983C4.83543 8.43016 4.87494 8.52554 4.87494 8.625C4.87494 8.72446 4.83543 8.81984 4.7651 8.89017C4.69478 8.96049 4.5994 9 4.49994 9H2.81244L1.12494 11.25H10.8749L9.18744 9H7.49994C7.40048 9 7.3051 8.96049 7.23477 8.89017C7.16445 8.81984 7.12494 8.72446 7.12494 8.625C7.12494 8.52554 7.16445 8.43016 7.23477 8.35983C7.3051 8.28951 7.40048 8.25 7.49994 8.25H9.37494C9.43316 8.25 9.49057 8.26355 9.54264 8.28959C9.59472 8.31563 9.64001 8.35343 9.67494 8.4L11.9249 11.4C11.9667 11.4557 11.9922 11.522 11.9984 11.5913C12.0047 11.6607 11.9915 11.7304 11.9603 11.7927C11.9292 11.855 11.8813 11.9074 11.8221 11.944C11.7628 11.9806 11.6946 12 11.6249 12H0.374939C0.305297 12 0.237031 11.9806 0.17779 11.944C0.118549 11.9074 0.0706738 11.855 0.0395289 11.7927C0.00838411 11.7304 -0.00479984 11.6607 0.0014544 11.5913C0.00770864 11.522 0.033154 11.4557 0.0749391 11.4L2.32494 8.4Z"
            fill="#8D8D8D" />
        <path fill-rule="evenodd" clip-rule="evenodd"
            d="M2.99994 2.99972C2.99999 2.42239 3.16663 1.85734 3.47986 1.37237C3.79309 0.887393 4.2396 0.503101 4.76582 0.265602C5.29203 0.0281031 5.8756 -0.0525138 6.4465 0.0334245C7.0174 0.119363 7.55138 0.368206 7.98436 0.750094C8.41734 1.13198 8.73093 1.63069 8.8875 2.18639C9.04408 2.74208 9.03699 3.33115 8.86708 3.88291C8.69717 4.43467 8.37166 4.92569 7.92961 5.29704C7.48755 5.66839 6.94774 5.90431 6.37494 5.97647V10.1247C6.37494 10.2242 6.33543 10.3196 6.2651 10.3899C6.19478 10.4602 6.0994 10.4997 5.99994 10.4997C5.90048 10.4997 5.8051 10.4602 5.73477 10.3899C5.66445 10.3196 5.62494 10.2242 5.62494 10.1247V5.97722C4.89966 5.88585 4.23271 5.5328 3.74935 4.9844C3.266 4.436 2.99951 3.73073 2.99994 2.99972Z"
            fill="#8D8D8D" />
    </g>
    <defs>
        <clipPath id="clip0_7_529">
            <rect width="12" height="12" fill="white" />
        </clipPath>
    </defs>
</svg>