<svg width="15" height="15" viewBox="0 0 15 15" fill="none" xmlns="http://www.w3.org/2000/svg">
<path fill-rule="evenodd" clip-rule="evenodd" d="M1.99976 6.24184C1.99976 3.22707 4.40283 0.769226 7.38437 0.769226C10.3659 0.769226 12.769 3.22707 12.769 6.24184C12.769 7.69723 12.3542 9.2603 11.6207 10.6105C10.8884 11.9588 9.81883 13.1305 8.48037 13.7563C8.13732 13.9169 7.76316 14.0002 7.38437 14.0002C7.00558 14.0002 6.63142 13.9169 6.28837 13.7563C4.94991 13.1305 3.88037 11.9594 3.14806 10.6105C2.41453 9.2603 1.99976 7.69723 1.99976 6.24184ZM7.38437 1.6923C4.92776 1.6923 2.92283 3.72123 2.92283 6.24184C2.92283 7.5323 3.29391 8.94461 3.95914 10.1698C4.62499 11.3963 5.56653 12.4 6.67914 12.92C6.89977 13.0234 7.14042 13.0769 7.38406 13.0769C7.6277 13.0769 7.86836 13.0234 8.08899 12.92C9.20222 12.4 10.1438 11.3963 10.8096 10.1698C11.4748 8.94523 11.8459 7.5323 11.8459 6.24184C11.8459 3.72123 9.84099 1.6923 7.38437 1.6923ZM7.38437 4.76923C7.20254 4.76923 7.02249 4.80504 6.8545 4.87462C6.68651 4.94421 6.53387 5.0462 6.4053 5.17477C6.27673 5.30334 6.17474 5.45598 6.10515 5.62397C6.03557 5.79196 5.99976 5.97201 5.99976 6.15384C5.99976 6.33567 6.03557 6.51572 6.10515 6.68371C6.17474 6.8517 6.27673 7.00434 6.4053 7.13291C6.53387 7.26149 6.68651 7.36348 6.8545 7.43306C7.02249 7.50264 7.20254 7.53846 7.38437 7.53846C7.75159 7.53846 8.10378 7.39258 8.36344 7.13291C8.62311 6.87325 8.76899 6.52106 8.76899 6.15384C8.76899 5.78662 8.62311 5.43444 8.36344 5.17477C8.10378 4.9151 7.75159 4.76923 7.38437 4.76923ZM5.07668 6.15384C5.07668 5.5418 5.31981 4.95483 5.75259 4.52206C6.18536 4.08928 6.77233 3.84615 7.38437 3.84615C7.99641 3.84615 8.58338 4.08928 9.01616 4.52206C9.44893 4.95483 9.69206 5.5418 9.69206 6.15384C9.69206 6.76588 9.44893 7.35285 9.01616 7.78563C8.58338 8.2184 7.99641 8.46153 7.38437 8.46153C6.77233 8.46153 6.18536 8.2184 5.75259 7.78563C5.31981 7.35285 5.07668 6.76588 5.07668 6.15384Z" fill="#8D8D8D"/>
</svg>
