<svg width="12" height="12" viewBox="0 0 12 12" fill="none" xmlns="http://www.w3.org/2000/svg">
<g clip-path="url(#clip0_7_525)">
<path d="M2.625 1.5C2.52554 1.5 2.43016 1.53951 2.35984 1.60984C2.28951 1.68016 2.25 1.77554 2.25 1.875V5.625C2.25 5.72446 2.28951 5.81984 2.35984 5.89016C2.43016 5.96049 2.52554 6 2.625 6H6.375C6.47446 6 6.56984 5.96049 6.64017 5.89016C6.71049 5.81984 6.75 5.72446 6.75 5.625V1.875C6.75 1.77554 6.71049 1.68016 6.64017 1.60984C6.56984 1.53951 6.47446 1.5 6.375 1.5H2.625ZM4.22325 9.345H3.105V8.67525H4.15725V8.2965H3.105V7.65525H4.2225V7.25025H2.61375V9.75H4.22325V9.345ZM5.21025 9.75H5.80575L6.63525 7.25025H6.0855L5.5305 9.2115H5.50725L4.947 7.25025H4.374L5.21025 9.75Z" fill="#8D8D8D"/>
<path d="M2.25 0C1.85218 0 1.47064 0.158035 1.18934 0.43934C0.908035 0.720644 0.75 1.10218 0.75 1.5V11.25H0.375C0.275544 11.25 0.180161 11.2895 0.109835 11.3598C0.0395088 11.4302 0 11.5255 0 11.625C0 11.7245 0.0395088 11.8198 0.109835 11.8902C0.180161 11.9605 0.275544 12 0.375 12H8.625C8.72446 12 8.81984 11.9605 8.89017 11.8902C8.96049 11.8198 9 11.7245 9 11.625C9 11.5255 8.96049 11.4302 8.89017 11.3598C8.81984 11.2895 8.72446 11.25 8.625 11.25H8.25V8.25C8.44891 8.25 8.63968 8.32902 8.78033 8.46967C8.92098 8.61032 9 8.80109 9 9V9.375C9 9.67337 9.11853 9.95952 9.32951 10.1705C9.54048 10.3815 9.82663 10.5 10.125 10.5C10.4234 10.5 10.7095 10.3815 10.9205 10.1705C11.1315 9.95952 11.25 9.67337 11.25 9.375V3C11.2501 2.95072 11.2405 2.90191 11.2217 2.85635C11.2029 2.8108 11.1753 2.76939 11.1405 2.7345L10.7655 2.3595C10.6952 2.2892 10.5998 2.24971 10.5004 2.24971C10.4009 2.24971 10.3056 2.2892 10.2353 2.3595L9.86025 2.7345C9.82531 2.76933 9.79759 2.81071 9.77867 2.85627C9.75975 2.90182 9.75001 2.95067 9.75 3V5.25C9.75 5.7825 10.035 6.072 10.227 6.26775L10.2323 6.27375C10.422 6.46725 10.5 6.5565 10.5 6.75V9.375C10.5 9.47446 10.4605 9.56984 10.3902 9.64017C10.3198 9.71049 10.2245 9.75 10.125 9.75C10.0255 9.75 9.93016 9.71049 9.85984 9.64017C9.78951 9.56984 9.75 9.47446 9.75 9.375V9C9.75 8.60218 9.59197 8.22064 9.31066 7.93934C9.02936 7.65804 8.64783 7.5 8.25 7.5V1.5C8.25 1.10218 8.09196 0.720644 7.81066 0.43934C7.52936 0.158035 7.14783 0 6.75 0L2.25 0ZM7.5 1.5V11.25H1.5V1.5C1.5 1.30109 1.57902 1.11032 1.71967 0.96967C1.86032 0.829018 2.05109 0.75 2.25 0.75H6.75C6.94891 0.75 7.13968 0.829018 7.28033 0.96967C7.42098 1.11032 7.5 1.30109 7.5 1.5Z" fill="#8D8D8D"/>
</g>
<defs>
<clipPath id="clip0_7_525">
<rect width="12" height="12" fill="white"/>
</clipPath>
</defs>
</svg>
