<svg width="12" height="12" viewBox="0 0 12 12" fill="none" xmlns="http://www.w3.org/2000/svg">
<g clip-path="url(#clip0_7_519)">
<path d="M6 3C6.09946 3 6.19484 3.03951 6.26517 3.10984C6.33549 3.18016 6.375 3.27554 6.375 3.375V4.5C6.375 4.59946 6.33549 4.69484 6.26517 4.76516C6.19484 4.83549 6.09946 4.875 6 4.875C5.90054 4.875 5.80516 4.83549 5.73484 4.76516C5.66451 4.69484 5.625 4.59946 5.625 4.5V3.375C5.625 3.27554 5.66451 3.18016 5.73484 3.10984C5.80516 3.03951 5.90054 3 6 3ZM2.799 4.299C2.86932 4.2287 2.96469 4.1892 3.06412 4.1892C3.16356 4.1892 3.25893 4.2287 3.32925 4.299L4.0155 4.9845C4.05037 5.01937 4.07802 5.06076 4.09689 5.10631C4.11576 5.15187 4.12547 5.20069 4.12547 5.25C4.12547 5.29931 4.11576 5.34813 4.09689 5.39369C4.07802 5.43924 4.05037 5.48063 4.0155 5.5155C3.98063 5.55037 3.93924 5.57802 3.89369 5.59689C3.84813 5.61576 3.79931 5.62547 3.75 5.62547C3.70069 5.62547 3.65187 5.61576 3.60631 5.59689C3.56076 5.57802 3.51937 5.55037 3.4845 5.5155L2.799 4.82925C2.7287 4.75893 2.68921 4.66356 2.68921 4.56412C2.68921 4.46469 2.7287 4.36932 2.799 4.299ZM1.5 7.5C1.5 7.40054 1.53951 7.30516 1.60984 7.23483C1.68016 7.16451 1.77554 7.125 1.875 7.125H3.0645C3.16396 7.125 3.25934 7.16451 3.32966 7.23483C3.39999 7.30516 3.4395 7.40054 3.4395 7.5C3.4395 7.59946 3.39999 7.69484 3.32966 7.76517C3.25934 7.83549 3.16396 7.875 3.0645 7.875H1.875C1.77554 7.875 1.68016 7.83549 1.60984 7.76517C1.53951 7.69484 1.5 7.59946 1.5 7.5ZM8.625 7.5C8.625 7.40054 8.66451 7.30516 8.73483 7.23483C8.80516 7.16451 8.90054 7.125 9 7.125H10.125C10.2245 7.125 10.3198 7.16451 10.3902 7.23483C10.4605 7.30516 10.5 7.40054 10.5 7.5C10.5 7.59946 10.4605 7.69484 10.3902 7.76517C10.3198 7.83549 10.2245 7.875 10.125 7.875H9C8.90054 7.875 8.80516 7.83549 8.73483 7.76517C8.66451 7.69484 8.625 7.59946 8.625 7.5ZM9.1905 4.3155C9.13846 4.26397 9.06898 4.23384 8.9958 4.23106C8.92261 4.22829 8.85105 4.25307 8.79525 4.3005L5.66025 6.9825C5.58721 7.04404 5.52789 7.12023 5.48615 7.20614C5.4444 7.29205 5.42115 7.38576 5.4179 7.48122C5.41465 7.57667 5.43148 7.67175 5.46728 7.7603C5.50309 7.84885 5.55708 7.92889 5.62577 7.99526C5.69446 8.06163 5.77632 8.11284 5.86604 8.14558C5.95577 8.17832 6.05137 8.19187 6.14666 8.18534C6.24195 8.17881 6.3348 8.15236 6.41923 8.10768C6.50365 8.06301 6.57775 8.00111 6.63675 7.926L9.21225 4.70325C9.2569 4.6471 9.27936 4.57649 9.27534 4.50486C9.27133 4.43323 9.24114 4.36557 9.1905 4.31475V4.3155Z" fill="#8D8D8D"/>
<path fill-rule="evenodd" clip-rule="evenodd" d="M2.40665e-06 7.4995C0.000786434 6.62635 0.192132 5.76389 0.560681 4.97233C0.929231 4.18078 1.4661 3.4792 2.13382 2.91657C2.80153 2.35394 3.584 1.94383 4.42659 1.71486C5.26918 1.48589 6.1516 1.44358 7.01223 1.59088C7.87287 1.73819 8.69098 2.07156 9.40946 2.56772C10.1279 3.06388 10.7295 3.71088 11.1721 4.46354C11.6147 5.21621 11.8876 6.0564 11.972 6.92547C12.0563 7.79454 11.9499 8.67154 11.6603 9.49525C11.3288 10.435 10.2765 10.6967 9.46125 10.4327C8.48175 10.1155 7.10625 9.7495 6 9.7495C4.8945 9.7495 3.5175 10.1155 2.53875 10.4327C1.7235 10.6967 0.671252 10.435 0.339752 9.49525C0.114279 8.85404 -0.000606355 8.17919 2.40665e-06 7.4995ZM6 2.2495C5.16028 2.24928 4.33276 2.45049 3.58689 2.83624C2.84101 3.222 2.19855 3.78104 1.71343 4.46645C1.2283 5.15185 0.914661 5.94363 0.798832 6.77533C0.683004 7.60702 0.768365 8.45437 1.04775 9.24625C1.2 9.6775 1.74 9.90324 2.30775 9.71875C3.29775 9.39925 4.7685 8.9995 6 8.9995C7.2315 8.9995 8.703 9.3985 9.69225 9.7195C10.26 9.90325 10.8 9.6775 10.9523 9.24625C11.2316 8.45437 11.317 7.60702 11.2012 6.77533C11.0853 5.94363 10.7717 5.15185 10.2866 4.46645C9.80145 3.78104 9.15899 3.222 8.41312 2.83624C7.66725 2.45049 6.83972 2.24928 6 2.2495Z" fill="#8D8D8D"/>
</g>
<defs>
<clipPath id="clip0_7_519">
<rect width="12" height="12" fill="white"/>
</clipPath>
</defs>
</svg>
