<svg width="14" height="16" viewBox="0 0 14 16" fill="none" xmlns="http://www.w3.org/2000/svg">
<path fill-rule="evenodd" clip-rule="evenodd" d="M4 2C4 1.46957 4.21071 0.960859 4.58579 0.585787C4.96086 0.210714 5.46957 0 6 0H7.33333C7.86377 0 8.37247 0.210714 8.74755 0.585787C9.12262 0.960859 9.33333 1.46957 9.33333 2V3.33333C9.33333 3.86377 9.12262 4.37247 8.74755 4.74755C8.37247 5.12262 7.86377 5.33333 7.33333 5.33333V6.66667H10.6667C10.8435 6.66667 11.013 6.73691 11.1381 6.86193C11.2631 6.98695 11.3333 7.15652 11.3333 7.33333V8.66667C11.3333 8.84348 11.2631 9.01305 11.1381 9.13807C11.013 9.2631 10.8435 9.33333 10.6667 9.33333C10.4899 9.33333 10.3203 9.2631 10.1953 9.13807C10.0702 9.01305 10 8.84348 10 8.66667V8H3.33333V8.66667C3.33333 8.84348 3.2631 9.01305 3.13807 9.13807C3.01305 9.2631 2.84348 9.33333 2.66667 9.33333C2.48986 9.33333 2.32029 9.2631 2.19526 9.13807C2.07024 9.01305 2 8.84348 2 8.66667V7.33333C2 7.15652 2.07024 6.98695 2.19526 6.86193C2.32029 6.73691 2.48986 6.66667 2.66667 6.66667H6V5.33333C5.46957 5.33333 4.96086 5.12262 4.58579 4.74755C4.21071 4.37247 4 3.86377 4 3.33333V2ZM7.33333 4C7.51014 4 7.67971 3.92976 7.80474 3.80474C7.92976 3.67971 8 3.51014 8 3.33333V2C8 1.82319 7.92976 1.65362 7.80474 1.5286C7.67971 1.40357 7.51014 1.33333 7.33333 1.33333H6C5.82319 1.33333 5.65362 1.40357 5.5286 1.5286C5.40357 1.65362 5.33333 1.82319 5.33333 2V3.33333C5.33333 3.51014 5.40357 3.67971 5.5286 3.80474C5.65362 3.92976 5.82319 4 6 4H7.33333ZM0 12.6667C0 12.1362 0.210714 11.6275 0.585787 11.2525C0.960859 10.8774 1.46957 10.6667 2 10.6667H3.33333C3.86377 10.6667 4.37247 10.8774 4.74755 11.2525C5.12262 11.6275 5.33333 12.1362 5.33333 12.6667V14C5.33333 14.5304 5.12262 15.0391 4.74755 15.4142C4.37247 15.7893 3.86377 16 3.33333 16H2C1.46957 16 0.960859 15.7893 0.585787 15.4142C0.210714 15.0391 0 14.5304 0 14V12.6667ZM2 12C1.82319 12 1.65362 12.0702 1.5286 12.1953C1.40357 12.3203 1.33333 12.4899 1.33333 12.6667V14C1.33333 14.1768 1.40357 14.3464 1.5286 14.4714C1.65362 14.5964 1.82319 14.6667 2 14.6667H3.33333C3.51014 14.6667 3.67971 14.5964 3.80474 14.4714C3.92976 14.3464 4 14.1768 4 14V12.6667C4 12.4899 3.92976 12.3203 3.80474 12.1953C3.67971 12.0702 3.51014 12 3.33333 12H2ZM8 12.6667C8 12.1362 8.21071 11.6275 8.58579 11.2525C8.96086 10.8774 9.46957 10.6667 10 10.6667H11.3333C11.8638 10.6667 12.3725 10.8774 12.7475 11.2525C13.1226 11.6275 13.3333 12.1362 13.3333 12.6667V14C13.3333 14.5304 13.1226 15.0391 12.7475 15.4142C12.3725 15.7893 11.8638 16 11.3333 16H10C9.46957 16 8.96086 15.7893 8.58579 15.4142C8.21071 15.0391 8 14.5304 8 14V12.6667ZM10 12C9.82319 12 9.65362 12.0702 9.52859 12.1953C9.40357 12.3203 9.33333 12.4899 9.33333 12.6667V14C9.33333 14.1768 9.40357 14.3464 9.52859 14.4714C9.65362 14.5964 9.82319 14.6667 10 14.6667H11.3333C11.5101 14.6667 11.6797 14.5964 11.8047 14.4714C11.9298 14.3464 12 14.1768 12 14V12.6667C12 12.4899 11.9298 12.3203 11.8047 12.1953C11.6797 12.0702 11.5101 12 11.3333 12H10Z" fill="#8D8D8D"/>
</svg>
